<mxfile host="app.diagrams.net" agent="Mozilla/5.0 (Windows NT 10.0; Win64; x64) AppleWebKit/537.36 (KHTML, like Gecko) Chrome/132.0.0.0 Safari/537.36" version="26.0.6">
  <diagram name="Pagina-1" id="mkBwnGq1V9i1GL2uGmrC">
    <mxGraphModel grid="1" page="1" gridSize="10" guides="1" tooltips="1" connect="1" arrows="1" fold="1" pageScale="1" pageWidth="827" pageHeight="1169" math="0" shadow="0">
      <root>
        <mxCell id="0" />
        <mxCell id="1" parent="0" />
        <mxCell id="2J2oXAtWp3yYPxrXhNg_-1" value="Gestione dell&#39;utente" style="ellipse;whiteSpace=wrap;html=1;" vertex="1" parent="1">
          <mxGeometry x="40" y="240" width="120" height="80" as="geometry" />
        </mxCell>
        <mxCell id="kn7xwdK2tV5x-kCpds1d-3" style="edgeStyle=none;curved=1;rounded=0;orthogonalLoop=1;jettySize=auto;html=1;exitX=1;exitY=0;exitDx=0;exitDy=0;fontSize=12;startSize=8;endSize=8;" edge="1" parent="1" source="2J2oXAtWp3yYPxrXhNg_-2">
          <mxGeometry relative="1" as="geometry">
            <mxPoint x="430" y="100" as="targetPoint" />
          </mxGeometry>
        </mxCell>
        <mxCell id="2J2oXAtWp3yYPxrXhNg_-2" value="Gestione Vault" style="ellipse;whiteSpace=wrap;html=1;" vertex="1" parent="1">
          <mxGeometry x="240" y="170" width="120" height="80" as="geometry" />
        </mxCell>
        <mxCell id="2J2oXAtWp3yYPxrXhNg_-3" value="SendMe" style="ellipse;whiteSpace=wrap;html=1;" vertex="1" parent="1">
          <mxGeometry x="70" y="10" width="120" height="80" as="geometry" />
        </mxCell>
        <mxCell id="2J2oXAtWp3yYPxrXhNg_-4" value="Gestione Spese di Gruppo" style="ellipse;whiteSpace=wrap;html=1;" vertex="1" parent="1">
          <mxGeometry x="70" y="480" width="120" height="80" as="geometry" />
        </mxCell>
        <mxCell id="2J2oXAtWp3yYPxrXhNg_-5" value="Gestione Gruppo" style="ellipse;whiteSpace=wrap;html=1;" vertex="1" parent="1">
          <mxGeometry x="380" y="520" width="120" height="80" as="geometry" />
        </mxCell>
        <mxCell id="2J2oXAtWp3yYPxrXhNg_-6" value="Gestione delle amicizie" style="ellipse;whiteSpace=wrap;html=1;" vertex="1" parent="1">
          <mxGeometry x="530" y="460" width="120" height="80" as="geometry" />
        </mxCell>
        <mxCell id="2J2oXAtWp3yYPxrXhNg_-7" value="CashBook" style="ellipse;whiteSpace=wrap;html=1;" vertex="1" parent="1">
          <mxGeometry x="560" y="300" width="120" height="80" as="geometry" />
        </mxCell>
        <mxCell id="2J2oXAtWp3yYPxrXhNg_-8" value="VirtualVault" style="ellipse;whiteSpace=wrap;html=1;" vertex="1" parent="1">
          <mxGeometry x="470" y="170" width="120" height="80" as="geometry" />
        </mxCell>
        <mxCell id="2J2oXAtWp3yYPxrXhNg_-9" value="Utente" style="shape=umlActor;verticalLabelPosition=bottom;verticalAlign=top;html=1;outlineConnect=0;direction=east;" vertex="1" parent="1">
          <mxGeometry x="295" y="350" width="30" height="60" as="geometry" />
        </mxCell>
        <mxCell id="2J2oXAtWp3yYPxrXhNg_-11" value="Extends" style="text;html=1;align=center;verticalAlign=middle;whiteSpace=wrap;rounded=0;" vertex="1" parent="1">
          <mxGeometry x="180" y="120" width="60" height="30" as="geometry" />
        </mxCell>
        <mxCell id="2J2oXAtWp3yYPxrXhNg_-12" value="" style="endArrow=none;dashed=1;html=1;rounded=0;entryX=0.5;entryY=1;entryDx=0;entryDy=0;" edge="1" parent="1" source="2J2oXAtWp3yYPxrXhNg_-2" target="2J2oXAtWp3yYPxrXhNg_-11">
          <mxGeometry width="50" height="50" relative="1" as="geometry">
            <mxPoint x="400" y="290" as="sourcePoint" />
            <mxPoint x="450" y="240" as="targetPoint" />
          </mxGeometry>
        </mxCell>
        <mxCell id="2J2oXAtWp3yYPxrXhNg_-13" value="" style="endArrow=none;dashed=1;html=1;rounded=0;exitX=0;exitY=0;exitDx=0;exitDy=0;" edge="1" parent="1" source="2J2oXAtWp3yYPxrXhNg_-11" target="2J2oXAtWp3yYPxrXhNg_-3">
          <mxGeometry width="50" height="50" relative="1" as="geometry">
            <mxPoint x="180" y="90" as="sourcePoint" />
            <mxPoint x="450" y="240" as="targetPoint" />
          </mxGeometry>
        </mxCell>
        <mxCell id="2J2oXAtWp3yYPxrXhNg_-15" value="" style="endArrow=classic;html=1;rounded=0;" edge="1" parent="1">
          <mxGeometry width="50" height="50" relative="1" as="geometry">
            <mxPoint x="310" y="340" as="sourcePoint" />
            <mxPoint x="300" y="260" as="targetPoint" />
          </mxGeometry>
        </mxCell>
        <mxCell id="2J2oXAtWp3yYPxrXhNg_-16" value="Banca" style="shape=umlActor;verticalLabelPosition=bottom;verticalAlign=top;html=1;outlineConnect=0;direction=east;" vertex="1" parent="1">
          <mxGeometry x="440" y="20" width="30" height="60" as="geometry" />
        </mxCell>
        <mxCell id="2J2oXAtWp3yYPxrXhNg_-18" value="" style="endArrow=classic;html=1;rounded=0;" edge="1" parent="1" target="2J2oXAtWp3yYPxrXhNg_-1">
          <mxGeometry width="50" height="50" relative="1" as="geometry">
            <mxPoint x="280" y="360" as="sourcePoint" />
            <mxPoint x="450" y="340" as="targetPoint" />
          </mxGeometry>
        </mxCell>
        <mxCell id="2J2oXAtWp3yYPxrXhNg_-19" value="" style="endArrow=classic;html=1;rounded=0;" edge="1" parent="1" target="2J2oXAtWp3yYPxrXhNg_-4">
          <mxGeometry width="50" height="50" relative="1" as="geometry">
            <mxPoint x="290" y="440" as="sourcePoint" />
            <mxPoint x="450" y="440" as="targetPoint" />
          </mxGeometry>
        </mxCell>
        <mxCell id="2J2oXAtWp3yYPxrXhNg_-20" value="" style="endArrow=classic;html=1;rounded=0;" edge="1" parent="1">
          <mxGeometry width="50" height="50" relative="1" as="geometry">
            <mxPoint x="340" y="430" as="sourcePoint" />
            <mxPoint x="400" y="530" as="targetPoint" />
          </mxGeometry>
        </mxCell>
        <mxCell id="2J2oXAtWp3yYPxrXhNg_-21" value="" style="endArrow=classic;html=1;rounded=0;entryX=0.025;entryY=0.3;entryDx=0;entryDy=0;entryPerimeter=0;" edge="1" parent="1" target="2J2oXAtWp3yYPxrXhNg_-7">
          <mxGeometry width="50" height="50" relative="1" as="geometry">
            <mxPoint x="330" y="360" as="sourcePoint" />
            <mxPoint x="450" y="440" as="targetPoint" />
          </mxGeometry>
        </mxCell>
        <mxCell id="2J2oXAtWp3yYPxrXhNg_-22" value="" style="endArrow=classic;html=1;rounded=0;" edge="1" parent="1">
          <mxGeometry width="50" height="50" relative="1" as="geometry">
            <mxPoint x="330" y="380" as="sourcePoint" />
            <mxPoint x="510" y="480" as="targetPoint" />
          </mxGeometry>
        </mxCell>
        <mxCell id="2J2oXAtWp3yYPxrXhNg_-23" value="" style="endArrow=none;dashed=1;html=1;rounded=0;exitX=1;exitY=0.5;exitDx=0;exitDy=0;" edge="1" parent="1" source="2J2oXAtWp3yYPxrXhNg_-2" target="2J2oXAtWp3yYPxrXhNg_-24">
          <mxGeometry width="50" height="50" relative="1" as="geometry">
            <mxPoint x="370" y="230" as="sourcePoint" />
            <mxPoint x="500" y="380" as="targetPoint" />
          </mxGeometry>
        </mxCell>
        <mxCell id="2J2oXAtWp3yYPxrXhNg_-24" value="Include" style="text;html=1;align=center;verticalAlign=middle;whiteSpace=wrap;rounded=0;" vertex="1" parent="1">
          <mxGeometry x="380" y="180" width="60" height="30" as="geometry" />
        </mxCell>
        <mxCell id="2J2oXAtWp3yYPxrXhNg_-26" value="" style="endArrow=none;dashed=1;html=1;rounded=0;exitX=0;exitY=0;exitDx=0;exitDy=0;" edge="1" parent="1" source="2J2oXAtWp3yYPxrXhNg_-8" target="2J2oXAtWp3yYPxrXhNg_-24">
          <mxGeometry width="50" height="50" relative="1" as="geometry">
            <mxPoint x="400" y="390" as="sourcePoint" />
            <mxPoint x="450" y="340" as="targetPoint" />
          </mxGeometry>
        </mxCell>
        <mxCell id="2J2oXAtWp3yYPxrXhNg_-27" value="" style="endArrow=classic;html=1;rounded=0;" edge="1" parent="1" target="2J2oXAtWp3yYPxrXhNg_-8">
          <mxGeometry width="50" height="50" relative="1" as="geometry">
            <mxPoint x="330" y="350" as="sourcePoint" />
            <mxPoint x="400" y="340" as="targetPoint" />
          </mxGeometry>
        </mxCell>
      </root>
    </mxGraphModel>
  </diagram>
</mxfile>
